<svg width="64" height="32" viewBox="0 0 64 32" fill="none" xmlns="http://www.w3.org/2000/svg">
<path d="M22.9141 7H25.1875V24.1211H22.8438V9.29688L15.6367 22.4219L8.04297 10.8555V24.1211H7V7H8.86328L16.5156 18.625L22.9141 7Z" fill="white"/>
<path d="M41.8633 7H43.0234L36.4609 23.8281L36.3555 24.1211H33.9531L33.8242 23.8281L27.2734 7H30.1211L30.0977 7.02344L35.9922 22.0703L41.4414 8.03125L41.8633 7Z" fill="white"/>
<path d="M51.7188 14.6523C52.3281 14.8711 52.8828 15.0938 53.3828 15.3203C53.8828 15.5469 54.4023 15.8281 54.9414 16.1641C55.4883 16.5 55.9453 16.8516 56.3125 17.2188C56.6797 17.5859 56.9805 18.0195 57.2148 18.5195C57.457 19.0195 57.5781 19.5508 57.5781 20.1133C57.5781 20.8945 57.3867 21.582 57.0039 22.1758C56.6211 22.7695 56.1055 23.2344 55.457 23.5703C54.8086 23.9062 54.1094 24.1562 53.3594 24.3203C52.6094 24.4844 51.8164 24.5664 50.9805 24.5664C49.2852 24.5664 47.875 24.2148 46.75 23.5117C45.6328 22.8086 44.9102 21.7852 44.582 20.4414L46.2344 20.1133C46.7422 22.3867 48.4727 23.5234 51.4258 23.5234C52.4883 23.5234 53.3945 23.2305 54.1445 22.6445C54.8945 22.0586 55.2734 21.2969 55.2812 20.3594C55.2891 19.5391 54.8672 18.8555 54.0156 18.3086C53.4766 17.9648 52.4453 17.5195 50.9219 16.9727H50.9102L50.8984 16.9609H50.8867L50.875 16.9492H50.8516L50.8398 16.9375H50.8164L50.8047 16.9258H50.7812L50.7695 16.9141H50.7461L50.7344 16.9023H50.7227L50.7109 16.8906H50.6875L50.6758 16.8789H50.6523L50.6406 16.8672H50.6172L50.2422 16.7266C48.7969 16.2031 47.8125 15.8086 47.2891 15.543C45.8359 14.8164 44.9297 13.9141 44.5703 12.8359C44.4453 12.4453 44.3828 12.0234 44.3828 11.5703C44.3828 11.2031 44.4531 10.8242 44.5938 10.4336C44.7422 10.0352 44.9805 9.63281 45.3086 9.22656C45.6367 8.82031 46.0312 8.45703 46.4922 8.13672C46.9531 7.81641 47.5352 7.55469 48.2383 7.35156C48.9414 7.14844 49.707 7.04688 50.5352 7.04688C51.9883 7.04688 53.2617 7.31641 54.3555 7.85547C55.4492 8.38672 56.332 9.16797 57.0039 10.1992L55.4688 10.7734C54.9062 9.91406 54.2148 9.22656 53.3945 8.71094C52.5742 8.19531 51.6367 7.9375 50.582 7.9375C50.0742 7.9375 49.6094 7.98828 49.1875 8.08984C48.7734 8.18359 48.4297 8.3125 48.1562 8.47656C47.8828 8.64062 47.6367 8.82812 47.418 9.03906C47.1992 9.25 47.0391 9.46875 46.9375 9.69531C46.8359 9.92188 46.75 10.1484 46.6797 10.375C46.6094 10.5938 46.5781 10.8008 46.5859 10.9961C46.6016 11.1836 46.6172 11.3438 46.6328 11.4766C46.6719 11.6641 46.7266 11.8398 46.7969 12.0039C46.875 12.1602 46.9766 12.3086 47.1016 12.4492C47.2344 12.5898 47.3555 12.7148 47.4648 12.8242C47.582 12.9258 47.75 13.0391 47.9688 13.1641C48.1875 13.2812 48.3711 13.3789 48.5195 13.457C48.6758 13.5352 48.9062 13.6328 49.2109 13.75C49.5156 13.8672 49.7617 13.9609 49.9492 14.0312C50.1367 14.0938 50.4219 14.1953 50.8047 14.3359C51.1875 14.4688 51.4922 14.5742 51.7188 14.6523Z" fill="white"/>
</svg>
